<?xml version="1.0" encoding="UTF-8" standalone="no" ?>
<!DOCTYPE svg PUBLIC "-//W3C//DTD SVG 1.1//EN" "http://www.w3.org/Graphics/SVG/1.1/DTD/svg11.dtd">
<svg xmlns="http://www.w3.org/2000/svg" xmlns:xlink="http://www.w3.org/1999/xlink" version="1.1" width="1080" height="1080" viewBox="0 0 1080 1080" xml:space="preserve">
<desc>Created with Fabric.js 5.2.4</desc>
<defs>
</defs>
<g transform="matrix(1 0 0 1 540 540)" id="a9753c37-c6a6-42e4-9c02-8b8de8c100d2"  >
<rect style="stroke: none; stroke-width: 1; stroke-dasharray: none; stroke-linecap: butt; stroke-dashoffset: 0; stroke-linejoin: miter; stroke-miterlimit: 4; fill: rgb(255,255,255); fill-rule: nonzero; opacity: 1; visibility: hidden;" vector-effect="non-scaling-stroke"  x="-540" y="-540" rx="0" ry="0" width="1080" height="1080" />
</g>
<g transform="matrix(1 0 0 1 540 540)" id="af63710b-988b-4dd1-b0ba-c3890b1463b3"  >
</g>
<g transform="matrix(1 0 0 1 540 540)" id="1d52d513-e0d7-49f5-9f67-3cc443c1dce4"  >
<path style="stroke: rgb(255,255,255); stroke-width: 0; stroke-dasharray: none; stroke-linecap: butt; stroke-dashoffset: 0; stroke-linejoin: miter; stroke-miterlimit: 4; fill: rgb(255,255,255); fill-rule: nonzero; opacity: 1;" vector-effect="non-scaling-stroke"  transform=" translate(-10, -10.02)" d="M 13.97 15.03 C 14.156970580463987 15.230653177612039 14.438555542158953 15.313249181507512 14.704288908638542 15.245385541874255 C 14.970022275118133 15.177521902240997 15.177521902240999 14.970022275118131 15.245385541874256 14.70428890863854 C 15.313249181507514 14.438555542158952 15.23065317761204 14.156970580463984 15.030000000000001 13.969999999999999 L 11.06 9.999999999999998 L 15.030000000000001 6.029999999999998 C 15.305358860429124 5.7344902455155164 15.297233875917357 5.273990278005256 15.01162179895605 4.988378201043949 C 14.726009721994743 4.702766124082642 14.265509754484482 4.694641139570875 13.97 4.969999999999997 L 10 8.939999999999998 L 6.029999999999999 4.969999999999997 C 5.734490245515518 4.694641139570875 5.273990278005257 4.702766124082642 4.988378201043951 4.988378201043949 C 4.702766124082644 5.273990278005256 4.6946411395708765 5.7344902455155164 4.969999999999999 6.029999999999998 L 8.94 9.999999999999998 L 4.969999999999999 13.969999999999999 C 4.769346822387959 14.156970580463986 4.686750818492486 14.438555542158952 4.754614458125744 14.704288908638542 C 4.822478097759002 14.970022275118131 5.029977724881868 15.177521902240997 5.295711091361458 15.245385541874255 C 5.561444457841047 15.313249181507512 5.8430294195360135 15.230653177612039 6.029999999999999 15.03 L 10 11.059999999999999 L 13.97 15.03 Z" stroke-linecap="round" />
</g>
</svg>